<?xml version="1.0" encoding="UTF-8"?>
<svg width="1440" height="800" viewBox="0 0 1440 800" fill="none" xmlns="http://www.w3.org/2000/svg">
    <g opacity="0.5">
        <circle cx="720" cy="400" r="200" stroke="white" stroke-width="2"/>
        <circle cx="720" cy="400" r="150" stroke="white" stroke-width="2"/>
        <circle cx="720" cy="400" r="100" stroke="white" stroke-width="2"/>
        <circle cx="720" cy="400" r="50" stroke="white" stroke-width="2"/>
        
        <line x1="520" y1="400" x2="920" y2="400" stroke="white" stroke-width="2"/>
        <line x1="720" y1="200" x2="720" y2="600" stroke="white" stroke-width="2"/>
        
        <circle cx="520" cy="400" r="5" fill="white"/>
        <circle cx="920" cy="400" r="5" fill="white"/>
        <circle cx="720" cy="200" r="5" fill="white"/>
        <circle cx="720" cy="600" r="5" fill="white"/>
        
        <path d="M720 200 Q 870 300 920 400 Q 870 500 720 600 Q 570 500 520 400 Q 570 300 720 200" stroke="white" stroke-width="2" fill="none"/>
    </g>
    
    <g opacity="0.3">
        <rect x="100" y="100" width="200" height="200" stroke="white" stroke-width="2" transform="rotate(45 200 200)"/>
        <rect x="1140" y="500" width="200" height="200" stroke="white" stroke-width="2" transform="rotate(-45 1240 600)"/>
    </g>
    
    <g opacity="0.2">
        <circle cx="200" cy="600" r="100" stroke="white" stroke-width="2"/>
        <circle cx="1240" cy="200" r="100" stroke="white" stroke-width="2"/>
    </g>
    
    <g opacity="0.1">
        <line x1="0" y1="0" x2="1440" y2="800" stroke="white" stroke-width="1"/>
        <line x1="1440" y1="0" x2="0" y2="800" stroke="white" stroke-width="1"/>
    </g>
</svg> 