<?xml version="1.0" encoding="UTF-8"?>
<svg width="800" height="600" viewBox="0 0 800 600" fill="none" xmlns="http://www.w3.org/2000/svg">
    <!-- Neural Network -->
    <g transform="translate(400, 300)">
        <!-- Input Layer -->
        <g transform="translate(-200, 0)">
            <circle cx="0" cy="-100" r="20" fill="#4f46e5" opacity="0.9"/>
            <circle cx="0" cy="0" r="20" fill="#4f46e5" opacity="0.9"/>
            <circle cx="0" cy="100" r="20" fill="#4f46e5" opacity="0.9"/>
        </g>
        
        <!-- Hidden Layer -->
        <g>
            <circle cx="0" cy="-150" r="20" fill="#14b8a6" opacity="0.9"/>
            <circle cx="0" cy="-50" r="20" fill="#14b8a6" opacity="0.9"/>
            <circle cx="0" cy="50" r="20" fill="#14b8a6" opacity="0.9"/>
            <circle cx="0" cy="150" r="20" fill="#14b8a6" opacity="0.9"/>
        </g>
        
        <!-- Output Layer -->
        <g transform="translate(200, 0)">
            <circle cx="0" cy="-100" r="20" fill="#f97316" opacity="0.9"/>
            <circle cx="0" cy="0" r="20" fill="#f97316" opacity="0.9"/>
            <circle cx="0" cy="100" r="20" fill="#f97316" opacity="0.9"/>
        </g>
        
        <!-- Connections -->
        <g opacity="0.2">
            <!-- Input to Hidden -->
            <line x1="-180" y1="-100" x2="-20" y2="-150" stroke="#4f46e5" stroke-width="2"/>
            <line x1="-180" y1="-100" x2="-20" y2="-50" stroke="#4f46e5" stroke-width="2"/>
            <line x1="-180" y1="-100" x2="-20" y2="50" stroke="#4f46e5" stroke-width="2"/>
            <line x1="-180" y1="-100" x2="-20" y2="150" stroke="#4f46e5" stroke-width="2"/>
            
            <line x1="-180" y1="0" x2="-20" y2="-150" stroke="#4f46e5" stroke-width="2"/>
            <line x1="-180" y1="0" x2="-20" y2="-50" stroke="#4f46e5" stroke-width="2"/>
            <line x1="-180" y1="0" x2="-20" y2="50" stroke="#4f46e5" stroke-width="2"/>
            <line x1="-180" y1="0" x2="-20" y2="150" stroke="#4f46e5" stroke-width="2"/>
            
            <line x1="-180" y1="100" x2="-20" y2="-150" stroke="#4f46e5" stroke-width="2"/>
            <line x1="-180" y1="100" x2="-20" y2="-50" stroke="#4f46e5" stroke-width="2"/>
            <line x1="-180" y1="100" x2="-20" y2="50" stroke="#4f46e5" stroke-width="2"/>
            <line x1="-180" y1="100" x2="-20" y2="150" stroke="#4f46e5" stroke-width="2"/>
            
            <!-- Hidden to Output -->
            <line x1="20" y1="-150" x2="180" y2="-100" stroke="#14b8a6" stroke-width="2"/>
            <line x1="20" y1="-150" x2="180" y2="0" stroke="#14b8a6" stroke-width="2"/>
            <line x1="20" y1="-150" x2="180" y2="100" stroke="#14b8a6" stroke-width="2"/>
            
            <line x1="20" y1="-50" x2="180" y2="-100" stroke="#14b8a6" stroke-width="2"/>
            <line x1="20" y1="-50" x2="180" y2="0" stroke="#14b8a6" stroke-width="2"/>
            <line x1="20" y1="-50" x2="180" y2="100" stroke="#14b8a6" stroke-width="2"/>
            
            <line x1="20" y1="50" x2="180" y2="-100" stroke="#14b8a6" stroke-width="2"/>
            <line x1="20" y1="50" x2="180" y2="0" stroke="#14b8a6" stroke-width="2"/>
            <line x1="20" y1="50" x2="180" y2="100" stroke="#14b8a6" stroke-width="2"/>
            
            <line x1="20" y1="150" x2="180" y2="-100" stroke="#14b8a6" stroke-width="2"/>
            <line x1="20" y1="150" x2="180" y2="0" stroke="#14b8a6" stroke-width="2"/>
            <line x1="20" y1="150" x2="180" y2="100" stroke="#14b8a6" stroke-width="2"/>
        </g>
        
        <!-- Data Flow Animation -->
        <g>
            <circle class="data-particle" cx="-180" cy="-100" r="5" fill="#4f46e5">
                <animate attributeName="cx" from="-180" to="180" dur="2s" repeatCount="indefinite"/>
                <animate attributeName="cy" from="-100" to="-100" dur="2s" repeatCount="indefinite"/>
            </circle>
            <circle class="data-particle" cx="-180" cy="0" r="5" fill="#14b8a6">
                <animate attributeName="cx" from="-180" to="180" dur="2s" begin="0.5s" repeatCount="indefinite"/>
                <animate attributeName="cy" from="0" to="0" dur="2s" begin="0.5s" repeatCount="indefinite"/>
            </circle>
            <circle class="data-particle" cx="-180" cy="100" r="5" fill="#f97316">
                <animate attributeName="cx" from="-180" to="180" dur="2s" begin="1s" repeatCount="indefinite"/>
                <animate attributeName="cy" from="100" to="100" dur="2s" begin="1s" repeatCount="indefinite"/>
            </circle>
        </g>
    </g>
    
    <!-- Background Patterns -->
    <g opacity="0.1">
        <path d="M0 0 L800 0 L800 600 L0 600 Z" fill="url(#grid-pattern)"/>
    </g>
    
    <!-- Definitions -->
    <defs>
        <pattern id="grid-pattern" x="0" y="0" width="40" height="40" patternUnits="userSpaceOnUse">
            <path d="M 40 0 L 0 0 0 40" fill="none" stroke="#4f46e5" stroke-width="1"/>
        </pattern>
    </defs>
</svg> 