<?xml version="1.0" encoding="UTF-8" standalone="no"?>
<svg xmlns="http://www.w3.org/2000/svg" width="800" height="600" viewBox="0 0 800 600" fill="none">
    <!-- Background -->
    <rect width="800" height="600" fill="#f3f4f6"/>

    <!-- Main Group -->
    <g transform="translate(400,300)">
        <!-- Central Flow Diagram -->
        <g opacity="0.9">
            <!-- Data Input Box -->
            <rect x="-150" y="-100" width="80" height="60" rx="5" fill="#14b8a6" opacity="0.8"/>
            <text x="-110" y="-65" fill="white" font-size="12" text-anchor="middle">Input Data</text>

            <!-- Processing Box -->
            <rect x="-35" y="-100" width="80" height="60" rx="5" fill="#4f46e5" opacity="0.8"/>
            <text x="5" y="-65" fill="white" font-size="12" text-anchor="middle">Process</text>

            <!-- Output Box -->
            <rect x="80" y="-100" width="80" height="60" rx="5" fill="#f97316" opacity="0.8"/>
            <text x="120" y="-65" fill="white" font-size="12" text-anchor="middle">Output</text>

            <!-- Connecting Arrows -->
            <path d="M-70 -70 L-35 -70" stroke="#4f46e5" stroke-width="2" marker-end="url(#arrowhead)"/>
            <path d="M45 -70 L80 -70" stroke="#4f46e5" stroke-width="2" marker-end="url(#arrowhead)"/>
        </g>

        <!-- Circular Data Flow -->
        <circle cx="0" cy="40" r="120" stroke="#14b8a6" stroke-width="2" fill="none" opacity="0.3"/>
        
        <!-- Data Points -->
        <g opacity="0.8">
            <circle cx="-80" cy="40" r="8" fill="#4f46e5"/>
            <circle cx="-40" cy="100" r="8" fill="#14b8a6"/>
            <circle cx="40" cy="100" r="8" fill="#f97316"/>
            <circle cx="80" cy="40" r="8" fill="#4f46e5"/>
        </g>

        <!-- Connecting Lines -->
        <g opacity="0.4">
            <path d="M-80 40 Q 0 -20 80 40" stroke="#4f46e5" stroke-width="1" fill="none"/>
            <path d="M-80 40 Q 0 160 80 40" stroke="#4f46e5" stroke-width="1" fill="none"/>
        </g>

        <!-- Binary Data Stream -->
        <g opacity="0.6" font-family="monospace" font-size="14">
            <text x="-140" y="-140" fill="#14b8a6">10010110</text>
            <text x="80" y="-140" fill="#f97316">01101001</text>
            <text x="-140" y="140" fill="#4f46e5">11100101</text>
            <text x="80" y="140" fill="#14b8a6">00011010</text>
        </g>

        <!-- Arrow Marker Definition -->
        <defs>
            <marker id="arrowhead" markerWidth="10" markerHeight="7" refX="9" refY="3.5" orient="auto">
                <polygon points="0 0, 10 3.5, 0 7" fill="#4f46e5"/>
            </marker>
        </defs>

        <!-- Pulse Animation -->
        <circle cx="0" cy="0" r="160" stroke="#4f46e5" stroke-width="2" fill="none" opacity="0.1">
            <animate attributeName="r" values="160;180;160" dur="3s" repeatCount="indefinite"/>
            <animate attributeName="opacity" values="0.1;0.2;0.1" dur="3s" repeatCount="indefinite"/>
        </circle>
    </g>

    <!-- Background Grid -->
    <g opacity="0.1">
        <path d="M0 0 L800 600" stroke="#4f46e5" stroke-width="1"/>
        <path d="M800 0 L0 600" stroke="#4f46e5" stroke-width="1"/>
        <path d="M400 0 L400 600" stroke="#4f46e5" stroke-width="1"/>
        <path d="M0 300 L800 300" stroke="#4f46e5" stroke-width="1"/>
    </g>
</svg>
